<?xml version="1.0" encoding="UTF-8"?><svg xmlns="http://www.w3.org/2000/svg" viewBox="0 0 34 34"><defs><style>.cls-1{fill:none;}.cls-2{fill:#202937;}</style></defs><g id="background"><rect class="cls-1" width="34" height="34"/></g><g id="icon"><g><path class="cls-2" d="m26.06,8.63H7.94c-.38,0-.69-.31-.69-.69s.31-.69.69-.69h18.11c.38,0,.69.31.69.69s-.31.69-.69.69Z"/><path class="cls-2" d="m26.06,20.71H7.94c-.38,0-.69-.31-.69-.69s.31-.69.69-.69h18.11c.38,0,.69.31.69.69s-.31.69-.69.69Z"/><path class="cls-2" d="m23.62,14.67h-13.24c-.38,0-.69-.31-.69-.69s.31-.69.69-.69h13.24c.38,0,.69.31.69.69s-.31.69-.69.69Z"/><path class="cls-2" d="m23.62,26.74h-13.24c-.38,0-.69-.31-.69-.69s.31-.69.69-.69h13.24c.38,0,.69.31.69.69s-.31.69-.69.69Z"/></g></g></svg>