<?xml version="1.0" encoding="UTF-8"?><svg id="background" xmlns="http://www.w3.org/2000/svg" viewBox="0 0 34 34"><defs><style>.cls-1{fill:none;}.cls-2{fill:#202937;}</style></defs><rect class="cls-1" width="34" height="34"/><g><path class="cls-2" d="m13.7,26.74c-.28,0-.54-.17-.64-.44l-3.16-8.24h-1.95c-.38,0-.69-.31-.69-.69s.31-.69.69-.69h2.42c.29,0,.54.18.64.44l2.45,6.39,2.88-15.7c.06-.33.35-.56.68-.56h9.03c.38,0,.69.31.69.69s-.31.69-.69.69h-8.46l-3.22,17.55c-.06.3-.31.53-.61.56-.02,0-.04,0-.06,0Z"/><g><path class="cls-2" d="m26.05,26.75c-.23,0-.45-.11-.58-.31l-5.45-8.35c-.21-.32-.12-.75.2-.95.32-.21.75-.12.95.2l5.45,8.35c.21.32.12.75-.2.95-.12.08-.25.11-.38.11Z"/><path class="cls-2" d="m20.61,26.75c-.13,0-.26-.04-.38-.11-.32-.21-.41-.63-.2-.95l5.45-8.35c.21-.32.63-.41.95-.2.32.21.41.63.2.95l-5.45,8.35c-.13.2-.35.31-.58.31Z"/></g></g></svg>