<?xml version="1.0" encoding="UTF-8"?><svg id="background" xmlns="http://www.w3.org/2000/svg" viewBox="0 0 34 34"><defs><style>.cls-1{fill:none;}.cls-2{fill:#202937;}</style></defs><rect class="cls-1" width="34" height="34"/><g><path class="cls-2" d="m22.88,28.76H7.63c-.38,0-.69-.31-.69-.69v-15.25c0-.38.31-.69.69-.69h15.25c.38,0,.69.31.69.69v15.25c0,.38-.31.69-.69.69Zm-14.56-1.38h13.87v-13.87h-13.87v13.87Z"/><path class="cls-2" d="m26.37,26.52c-.16,0-.31-.05-.44-.16l-3.31-2.75c-.15-.13-.62-.52-.29-1.03l.58.38.44-.53s1.33,1.11,2.33,1.94v-7.86l-2.34,1.94c-.29.24-.73.2-.97-.09-.24-.29-.2-.73.09-.97l3.47-2.88c.21-.17.49-.21.73-.09.24.11.4.36.4.62v10.8c0,.27-.15.51-.4.62-.09.04-.19.07-.29.07Z"/><path class="cls-2" d="m19.88,9.96c-.29,0-.56-.18-.65-.47-.57-1.72-2.17-2.87-3.97-2.87s-3.4,1.15-3.97,2.87c-.12.36-.51.56-.87.43-.36-.12-.56-.51-.43-.87.76-2.28,2.88-3.81,5.28-3.81s4.51,1.53,5.28,3.81c.12.36-.07.75-.43.87-.07.02-.15.04-.22.04Z"/><path class="cls-2" d="m16.96,11.22c-.29,0-.56-.18-.65-.48-.15-.47-.57-.78-1.05-.78s-.89.32-1.05.78c-.12.36-.51.56-.87.44-.36-.12-.56-.51-.44-.87.34-1.04,1.29-1.73,2.36-1.73s2.02.7,2.36,1.73c.12.36-.08.75-.44.87-.07.02-.14.03-.21.03Z"/><g><path class="cls-2" d="m11.15,24.47c-.18,0-.35-.07-.49-.2-.27-.27-.27-.71,0-.97l4.06-4.06c.27-.27.71-.27.97,0l4.06,4.06c.27.27.27.71,0,.97-.27.27-.71.27-.97,0l-3.58-3.57-3.57,3.57c-.13.13-.31.2-.49.2Z"/><path class="cls-2" d="m11.15,24.47c-.38,0-.69-.31-.69-.69,0-.38.31-.69.69-.69h8.12s0,0,0,0c.38,0,.69.31.69.69,0,.38-.31.69-.69.69h-8.12s0,0,0,0Z"/><path class="cls-2" d="m18.85,18.84c-.67,0-1.21-.54-1.21-1.21s.54-1.21,1.21-1.21,1.21.54,1.21,1.21-.54,1.21-1.21,1.21Z"/></g></g></svg>