<?xml version="1.0" encoding="UTF-8"?><svg id="background" xmlns="http://www.w3.org/2000/svg" viewBox="0 0 34 34"><defs><style>.cls-1{fill:none;}.cls-2{fill:#202937;}</style></defs><rect class="cls-1" width="34" height="34"/><g><path class="cls-2" d="m19.76,26.77c-.23,0-.45-.11-.58-.31L7.35,8.31c-.21-.32-.12-.75.2-.96.32-.21.75-.12.96.2l11.83,18.15c.21.32.12.75-.2.96-.12.08-.25.11-.38.11Z"/><path class="cls-2" d="m7.93,26.77c-.13,0-.26-.04-.38-.11-.32-.21-.41-.64-.2-.96L19.18,7.56c.21-.32.64-.41.96-.2.32.21.41.64.2.96l-11.83,18.15c-.13.2-.35.31-.58.31Z"/><g><path class="cls-2" d="m24.34,11.24c-.23,0-.45-.11-.58-.31l-1.71-2.63c-.21-.32-.12-.75.2-.96.32-.21.75-.12.96.2l1.71,2.63c.21.32.12.75-.2.96-.12.08-.25.11-.38.11Z"/><path class="cls-2" d="m23.26,12.91c-.13,0-.26-.04-.38-.11-.32-.21-.41-.64-.2-.96l2.81-4.3c.21-.32.64-.41.96-.2.32.21.41.64.2.96l-2.81,4.3c-.13.2-.35.31-.58.31Z"/></g></g></svg>