<?xml version="1.0" encoding="UTF-8"?><svg id="background" xmlns="http://www.w3.org/2000/svg" viewBox="0 0 34 34"><defs><style>.cls-1{fill:none;}.cls-2{fill:#202937;}</style></defs><rect class="cls-1" width="34" height="34"/><g><path class="cls-2" d="m12.3,26.77c-.57,0-1.04-.46-1.04-1.04V8.27c0-.57.46-1.04,1.04-1.04s1.04.46,1.04,1.04v17.47c0,.57-.46,1.04-1.04,1.04Z"/><path class="cls-2" d="m16.23,18.04h-3.59c-.57,0-1.04-.46-1.04-1.04s.46-1.04,1.04-1.04h3.59c2.4,0,4.42-1.53,4.42-3.33s-2.03-3.33-4.42-3.33h-3.92c-.57,0-1.04-.46-1.04-1.04s.46-1.04,1.04-1.04h3.92c3.58,0,6.5,2.42,6.5,5.4s-2.91,5.4-6.5,5.4Z"/><path class="cls-2" d="m17,26.77h-4.69c-.57,0-1.04-.46-1.04-1.04s.46-1.04,1.04-1.04h4.69c2.02,0,3.67-1.49,3.67-3.33s-1.64-3.33-3.67-3.33h-4.5c-.57,0-1.04-.46-1.04-1.04s.46-1.04,1.04-1.04h4.5c3.16,0,5.74,2.42,5.74,5.4s-2.57,5.4-5.74,5.4Z"/></g></svg>