<?xml version="1.0" encoding="UTF-8"?><svg xmlns="http://www.w3.org/2000/svg" viewBox="0 0 34 34"><defs><style>.cls-1{fill:none;}.cls-2{fill:#202937;}</style></defs><g id="background"><rect class="cls-1" width="34" height="34"/></g><g id="icon"><g><path class="cls-2" d="m26.05,10.35h-13.24c-.38,0-.69-.31-.69-.69s.31-.69.69-.69h13.24c.38,0,.69.31.69.69s-.31.69-.69.69Z"/><circle class="cls-2" cx="8.68" cy="9.66" r="1.42"/><path class="cls-2" d="m26.05,17.69h-13.24c-.38,0-.69-.31-.69-.69s.31-.69.69-.69h13.24c.38,0,.69.31.69.69s-.31.69-.69.69Z"/><circle class="cls-2" cx="8.68" cy="17" r="1.42"/><path class="cls-2" d="m26.05,25.03h-13.24c-.38,0-.69-.31-.69-.69s.31-.69.69-.69h13.24c.38,0,.69.31.69.69s-.31.69-.69.69Z"/><circle class="cls-2" cx="8.68" cy="24.34" r="1.42"/></g></g></svg>