<?xml version="1.0" encoding="UTF-8"?><svg id="background" xmlns="http://www.w3.org/2000/svg" viewBox="0 0 34 34"><defs><style>.cls-1{fill:none;}.cls-2{fill:#202937;}</style></defs><rect class="cls-1" width="34" height="34"/><g><path class="cls-2" d="m17,26.76c-5.38,0-9.76-4.38-9.76-9.76s4.38-9.76,9.76-9.76,9.76,4.38,9.76,9.76-4.38,9.76-9.76,9.76Zm0-18.14c-4.62,0-8.38,3.76-8.38,8.38s3.76,8.38,8.38,8.38,8.38-3.76,8.38-8.38-3.76-8.38-8.38-8.38Z"/><g><path class="cls-2" d="m17,22.19c-.38,0-.69-.31-.69-.69v-6.22c0-.38.31-.69.69-.69s.69.31.69.69v6.22c0,.38-.31.69-.69.69Z"/><circle class="cls-2" cx="17" cy="12.51" r=".69"/></g></g></svg>