<?xml version="1.0" encoding="UTF-8"?><svg id="background" xmlns="http://www.w3.org/2000/svg" viewBox="0 0 34 34"><defs><style>.cls-1{fill:none;}.cls-2{fill:#202937;}</style></defs><rect class="cls-1" width="34" height="34"/><g><path class="cls-2" d="m18.33,19.99c-1.11,0-2.21-.42-3.05-1.26-.27-.27-.27-.71,0-.98.27-.27.71-.27.98,0,1.15,1.14,3.01,1.14,4.16,0l3.01-3.01c.56-.56.86-1.29.86-2.08s-.31-1.52-.86-2.08c-.56-.56-1.29-.86-2.08-.86s-1.52.31-2.08.86l-2.61,2.61c-.27.27-.71.27-.98,0-.27-.27-.27-.71,0-.98l2.61-2.61c1.68-1.68,4.43-1.69,6.11,0,.82.82,1.27,1.9,1.27,3.06s-.45,2.24-1.27,3.06l-3.01,3.01c-.84.84-1.95,1.26-3.06,1.26Z"/><path class="cls-2" d="m12.66,25.66c-1.11,0-2.21-.42-3.06-1.26-1.68-1.68-1.68-4.43,0-6.11l3.01-3.01c1.68-1.68,4.42-1.68,6.11,0,.27.27.27.71,0,.98-.27.27-.71.27-.98,0-1.15-1.15-3.01-1.14-4.16,0l-3.01,3.01c-1.15,1.15-1.15,3.01,0,4.16,1.15,1.15,3.01,1.15,4.16,0l2.61-2.61c.27-.27.71-.27.98,0,.27.27.27.71,0,.98l-2.61,2.61c-.84.84-1.95,1.26-3.06,1.26Z"/></g></svg>