<?xml version="1.0" encoding="UTF-8"?><svg id="background" xmlns="http://www.w3.org/2000/svg" viewBox="0 0 34 34"><defs><style>.cls-1{fill:none;}.cls-2{fill:#c7c7c7;}</style></defs><rect class="cls-1" width="34" height="34"/><g><path class="cls-2" d="m26.07,26.77H7.93c-.38,0-.69-.31-.69-.69s.31-.69.69-.69h18.14c.38,0,.69.31.69.69s-.31.69-.69.69Z"/><path class="cls-2" d="m10.78,22.53c-.16,0-.33-.06-.45-.17-.18-.16-.27-.4-.23-.64l.48-2.82c.02-.13.08-.24.16-.34l9.7-11.1c.12-.14.29-.22.47-.23.18-.01.36.05.5.17,0,0,2.1,1.84,2.24,1.96.04.03.08.07.11.12.19.26.18.62-.03.87l-9.7,11.1c-.08.1-.19.17-.31.2l-2.73.86c-.07.02-.14.03-.21.03Zm1.13-3.2l-.26,1.52,1.46-.46,9.12-10.43-1.21-1.06-9.12,10.43Z"/></g></svg>