<?xml version="1.0" encoding="UTF-8"?><svg xmlns="http://www.w3.org/2000/svg" viewBox="0 0 34 34"><defs><style>.cls-1{fill:none;}.cls-2{fill:#c7c7c7;}</style></defs><g id="background"><rect class="cls-1" width="34" height="34"/></g><g id="icon"><g><path class="cls-2" d="m26.05,10.35h-13.24c-.38,0-.69-.31-.69-.69s.31-.69.69-.69h13.24c.38,0,.69.31.69.69s-.31.69-.69.69Z"/><path class="cls-2" d="m26.05,17.69h-13.24c-.38,0-.69-.31-.69-.69s.31-.69.69-.69h13.24c.38,0,.69.31.69.69s-.31.69-.69.69Z"/><path class="cls-2" d="m26.05,25.03h-13.24c-.38,0-.69-.31-.69-.69s.31-.69.69-.69h13.24c.38,0,.69.31.69.69s-.31.69-.69.69Z"/><path class="cls-2" d="m9.11,11.87c-.08,0-.14-.03-.2-.08-.06-.06-.08-.12-.08-.2v-3.45l-.41.18c-.06.03-.12.04-.18.04-.08,0-.15-.03-.21-.08-.05-.05-.08-.12-.08-.2,0-.06.02-.12.05-.16s.08-.08.14-.11l.88-.32s.04-.01.06-.02c.02,0,.04,0,.05,0,.09,0,.16.03.21.08.05.05.08.13.08.21v3.84c0,.08-.03.15-.08.2-.06.06-.13.08-.21.08Z"/><path class="cls-2" d="m7.62,19.21c-.08,0-.15-.03-.21-.08-.05-.06-.08-.12-.08-.2s.03-.15.08-.2l1.61-1.88c.11-.13.2-.26.26-.37.06-.12.09-.23.09-.33,0-.17-.03-.31-.08-.43-.06-.12-.14-.21-.24-.28-.11-.07-.23-.1-.38-.1s-.27.04-.39.11c-.12.07-.21.17-.27.29-.07.12-.1.26-.1.4,0,.08-.03.14-.08.2-.05.06-.12.08-.21.08s-.15-.03-.2-.08c-.06-.06-.08-.12-.08-.2,0-.26.06-.49.18-.69.12-.2.28-.36.48-.48.2-.12.43-.18.68-.18s.48.05.67.16c.19.11.34.26.44.46.1.2.16.44.16.71,0,.12-.03.24-.08.37-.05.12-.12.24-.19.36-.08.11-.16.22-.24.31l-1.3,1.47h1.59c.08,0,.15.03.21.09.06.06.08.13.08.2,0,.08-.03.15-.08.2-.06.06-.13.08-.21.08h-2.1Z"/><path class="cls-2" d="m8.72,26.55c-.28,0-.53-.06-.75-.18-.22-.12-.39-.28-.52-.49-.13-.21-.19-.44-.19-.69,0-.09.03-.16.08-.21.05-.05.11-.08.18-.08.08,0,.14.03.19.08.05.05.07.13.07.21,0,.15.04.3.12.43.08.13.19.23.32.31.14.08.29.12.46.12.25,0,.45-.07.6-.21.15-.14.23-.33.23-.58,0-.16-.03-.3-.1-.43-.07-.13-.16-.23-.28-.3-.12-.08-.25-.11-.4-.11-.08,0-.15-.03-.21-.08-.05-.06-.08-.13-.08-.21,0-.08.03-.15.08-.21.05-.05.12-.08.21-.08.11,0,.21-.03.31-.08.1-.05.18-.13.24-.22.06-.09.1-.2.1-.31,0-.17-.06-.31-.18-.42-.12-.11-.28-.17-.46-.17-.14,0-.27.03-.39.09-.12.06-.21.13-.28.23-.07.09-.1.2-.1.32,0,.09-.02.16-.07.22-.05.06-.11.09-.19.09-.07,0-.13-.03-.18-.08-.05-.05-.08-.12-.08-.21,0-.22.06-.42.17-.59.11-.17.27-.31.46-.41.2-.1.41-.15.66-.15.22,0,.42.05.6.14s.32.23.43.39c.1.16.16.35.16.56,0,.15-.03.28-.1.39-.07.11-.15.21-.25.29-.1.08-.21.15-.32.2.2.07.36.16.49.27.12.11.22.25.28.4.06.15.09.32.09.49,0,.25-.06.47-.19.66-.12.19-.29.35-.5.46-.21.11-.44.17-.68.17Z"/></g></g></svg>