<?xml version="1.0" encoding="UTF-8"?><svg xmlns="http://www.w3.org/2000/svg" viewBox="0 0 34 34"><defs><style>.cls-1{fill:none;}.cls-2{fill:#c7c7c7;}</style></defs><g id="background"><rect class="cls-1" width="34" height="34"/></g><g id="icon"><g><path class="cls-2" d="m26.05,8.64H7.94c-.38,0-.69-.31-.69-.69s.31-.69.69-.69h18.1c.38,0,.69.31.69.69s-.31.69-.69.69Z"/><path class="cls-2" d="m26.07,14.67h-10.8c-.38,0-.69-.31-.69-.69s.31-.69.69-.69h10.8c.38,0,.69.31.69.69s-.31.69-.69.69Z"/><path class="cls-2" d="m26.07,20.71h-10.8c-.38,0-.69-.31-.69-.69s.31-.69.69-.69h10.8c.38,0,.69.31.69.69s-.31.69-.69.69Z"/><path class="cls-2" d="m26.05,26.74H7.94c-.38,0-.69-.31-.69-.69s.31-.69.69-.69h18.1c.38,0,.69.31.69.69s-.31.69-.69.69Z"/><g><path class="cls-2" d="m10.14,17.01l-2.17-2.17s-.06,4.34,0,4.34l2.17-2.17"/><path class="cls-2" d="m7.97,19.87c-.18,0-.36-.07-.49-.21q-.26-.26-.2-4.83c0-.28.17-.52.43-.63.26-.1.55-.05.75.15l2.17,2.17c.13.13.2.3.2.49s-.07.36-.2.49l-2.17,2.17c-.13.13-.3.2-.49.2Zm.67-3.38c0,.36,0,.72,0,1.05l.53-.53-.52-.52Z"/></g></g></g></svg>