<?xml version="1.0" encoding="UTF-8"?><svg id="background" xmlns="http://www.w3.org/2000/svg" viewBox="0 0 34 34"><defs><style>.cls-1{fill:none;}.cls-2{fill:#202937;}</style></defs><rect class="cls-1" width="34" height="34"/><g><path class="cls-2" d="m26.07,26.77H7.93c-.38,0-.69-.31-.69-.69V7.92c0-.38.31-.69.69-.69h18.15c.38,0,.69.31.69.69v18.15c0,.38-.31.69-.69.69Zm-17.46-1.38h16.77V8.62H8.62v16.77Z"/><path class="cls-2" d="m25.88,11.9H7.93c-.38,0-.69-.31-.69-.69s.31-.69.69-.69h17.95c.38,0,.69.31.69.69s-.31.69-.69.69Z"/><path class="cls-2" d="m25.97,19.33H8.02c-.38,0-.69-.31-.69-.69s.31-.69.69-.69h17.95c.38,0,.69.31.69.69s-.31.69-.69.69Z"/><path class="cls-2" d="m17,26.43c-.38,0-.69-.31-.69-.69v-14.36c0-.38.31-.69.69-.69s.69.31.69.69v14.36c0,.38-.31.69-.69.69Z"/></g></svg>