<?xml version="1.0" encoding="UTF-8"?><svg xmlns="http://www.w3.org/2000/svg" viewBox="0 0 34 34"><defs><style>.cls-1{fill:none;}.cls-2{fill:#c7c7c7;}</style></defs><g id="background"><rect class="cls-1" width="34" height="34"/></g><g id="icon"><g><path class="cls-2" d="m26.06,8.64h-8.36c-.38,0-.69-.31-.69-.69s.31-.69.69-.69h8.36c.38,0,.69.31.69.69s-.31.69-.69.69Z"/><path class="cls-2" d="m26.06,14.67h-8.36c-.38,0-.69-.31-.69-.69s.31-.69.69-.69h8.36c.38,0,.69.31.69.69s-.31.69-.69.69Z"/><path class="cls-2" d="m26.06,20.71h-8.36c-.38,0-.69-.31-.69-.69s.31-.69.69-.69h8.36c.38,0,.69.31.69.69s-.31.69-.69.69Z"/><path class="cls-2" d="m26.06,26.75h-8.36c-.38,0-.69-.31-.69-.69s.31-.69.69-.69h8.36c.38,0,.69.31.69.69s-.31.69-.69.69Z"/><g><path class="cls-2" d="m10.11,7.94l-2.17,2.17s4.34.06,4.34,0l-2.17-2.17"/><path class="cls-2" d="m11.12,10.83c-.69,0-1.69-.01-3.18-.03-.28,0-.52-.17-.63-.43s-.04-.55.15-.75l2.17-2.17c.27-.27.71-.27.97,0l2.17,2.17c.13.13.2.3.2.49s-.07.36-.21.49c-.18.17-.23.23-1.65.23Zm-1.53-1.39c.36,0,.72,0,1.05,0l-.53-.53-.52.52Z"/></g><g><path class="cls-2" d="m10.11,26.05l2.17-2.17s-4.34-.06-4.34,0l2.17,2.17"/><path class="cls-2" d="m10.11,26.74c-.18,0-.35-.07-.49-.2l-2.17-2.17c-.13-.13-.2-.3-.2-.49s.07-.36.21-.49q.26-.26,4.83-.2c.28,0,.52.17.63.43s.04.55-.15.75l-2.17,2.17c-.13.13-.31.2-.49.2Zm-.53-2.19l.53.53.52-.52c-.36,0-.72,0-1.05,0Z"/></g></g></g></svg>