<?xml version="1.0" encoding="UTF-8"?><svg id="background" xmlns="http://www.w3.org/2000/svg" viewBox="0 0 34 34"><defs><style>.cls-1{fill:none;}.cls-2{fill:#c7c7c7;}</style></defs><rect class="cls-1" width="34" height="34"/><g><g><path class="cls-2" d="m20.24,17.85c-.18,0-.35-.07-.49-.2l-1.91-1.91-1.91,1.9c-.27.27-.71.27-.97,0-.27-.27-.27-.71,0-.97l2.4-2.39c.27-.27.71-.27.97,0l2.39,2.39c.27.27.27.71,0,.97-.13.13-.31.2-.49.2Z"/><path class="cls-2" d="m20.24,17.85h-4.79c-.38,0-.69-.31-.69-.69,0-.38.31-.69.69-.69h4.79c.38,0,.69.31.69.69,0,.38-.31.69-.69.69Z"/><path class="cls-2" d="m15.7,13.66c-.55,0-.99-.45-.99-.99s.45-.99.99-.99.99.45.99.99-.45.99-.99.99Z"/></g><path class="cls-2" d="m26.87,19.9c-.16,0-.31-.05-.44-.16l-2.72-2.26c-.39-.33-.48-.67-.26-1.01l.58.38.44-.53s.93.77,1.71,1.43v-5.94l-1.72,1.43c-.29.24-.73.2-.97-.09-.24-.29-.2-.73.09-.97l2.85-2.37c.21-.17.49-.21.73-.09.24.11.4.36.4.62v8.88c0,.27-.15.51-.4.62-.09.04-.19.07-.29.07Z"/><g><path class="cls-2" d="m12,26.13c-1.44,0-2.86-.56-3.93-1.63-1.69-1.69-2.11-4.27-1.04-6.42.17-.34.58-.48.92-.31s.48.58.31.92c-.81,1.62-.49,3.56.78,4.83,1.27,1.27,3.22,1.59,4.83.78.34-.17.75-.03.92.31.17.34.03.75-.31.92-.79.4-1.65.59-2.49.59Z"/><path class="cls-2" d="m12.17,22.85c-.64,0-1.27-.25-1.74-.72-.76-.76-.94-1.92-.44-2.89.17-.34.59-.47.93-.3.34.17.47.59.3.93-.22.44-.15.96.19,1.3.34.34.86.41,1.3.19.34-.17.75-.04.93.3.17.34.04.75-.3.93-.37.19-.76.28-1.15.28Z"/></g><path class="cls-2" d="m24.01,21.65h-6.2c-.38,0-.69-.31-.69-.69s.31-.69.69-.69h5.51v-11.02h-11.02v5.5c0,.38-.31.69-.69.69s-.69-.31-.69-.69v-6.19c0-.38.31-.69.69-.69h12.4c.38,0,.69.31.69.69v12.4c0,.38-.31.69-.69.69Z"/></g></svg>