<?xml version="1.0" encoding="UTF-8"?><svg id="background" xmlns="http://www.w3.org/2000/svg" viewBox="0 0 34 34"><defs><style>.cls-1{fill:none;}.cls-2{fill:#c7c7c7;}</style></defs><rect class="cls-1" width="34" height="34"/><g><path class="cls-2" d="m21.77,27.33h-12.4c-.38,0-.69-.31-.69-.69v-12.4c0-.38.31-.69.69-.69h12.4c.38,0,.69.31.69.69v12.4c0,.38-.31.69-.69.69Zm-11.71-1.38h11.02v-11.02h-11.02v11.02Z"/><path class="cls-2" d="m24.63,25.57c-.16,0-.31-.05-.44-.16l-2.72-2.26c-.16-.13-.49-.41-.33-.87l.65.23.44-.53s.93.78,1.71,1.42v-5.94l-1.72,1.43c-.29.24-.73.2-.97-.09-.24-.29-.2-.73.09-.97l2.85-2.37c.21-.17.49-.21.73-.09.24.11.4.36.4.62v8.88c0,.27-.15.51-.4.62-.09.04-.19.07-.29.07Z"/><path class="cls-2" d="m20.19,11.38c-.29,0-.56-.18-.65-.47-.57-1.72-2.17-2.87-3.97-2.87s-3.39,1.15-3.97,2.87c-.12.36-.51.56-.87.43-.36-.12-.56-.51-.43-.87.76-2.28,2.88-3.81,5.28-3.81s4.51,1.53,5.28,3.81c.12.36-.07.75-.43.87-.07.02-.15.04-.22.04Z"/><path class="cls-2" d="m17.27,12.65c-.29,0-.56-.18-.65-.48-.15-.47-.57-.78-1.05-.78s-.89.32-1.05.78c-.12.36-.51.56-.87.44-.36-.12-.56-.51-.44-.87.34-1.04,1.29-1.73,2.36-1.73s2.02.7,2.36,1.73c.12.36-.08.75-.44.87-.07.02-.14.03-.21.03Z"/><g><path class="cls-2" d="m12.23,23.85c-.18,0-.35-.07-.49-.2-.27-.27-.27-.71,0-.97l3.3-3.3c.27-.27.71-.27.97,0l3.3,3.3c.27.27.27.71,0,.97-.27.27-.71.27-.97,0l-2.82-2.81-2.81,2.81c-.13.13-.31.2-.49.2Z"/><path class="cls-2" d="m12.23,23.85c-.38,0-.69-.31-.69-.69,0-.38.31-.69.69-.69h6.6s0,0,0,0c.38,0,.69.31.69.69,0,.38-.31.69-.69.69h-6.6s0,0,0,0Z"/><path class="cls-2" d="m18.49,19.27c-.61,0-1.11-.5-1.11-1.11s.5-1.11,1.11-1.11,1.11.5,1.11,1.11-.5,1.11-1.11,1.11Z"/></g></g></svg>