<?xml version="1.0" encoding="UTF-8"?><svg id="background" xmlns="http://www.w3.org/2000/svg" viewBox="0 0 34 34"><defs><style>.cls-1{fill:none;}.cls-2{fill:#202937;}</style></defs><rect class="cls-1" width="34" height="34"/><g><path class="cls-2" d="m26.07,8.62H7.92c-.38,0-.69-.31-.69-.69s.31-.69.69-.69h18.15c.38,0,.69.31.69.69s-.31.69-.69.69Z"/><path class="cls-2" d="m26.08,17.69h-8.38c-.38,0-.69-.31-.69-.69s.31-.69.69-.69h8.38c.38,0,.69.31.69.69s-.31.69-.69.69Z"/><path class="cls-2" d="m26.08,13.15h-8.38c-.38,0-.69-.31-.69-.69s.31-.69.69-.69h8.38c.38,0,.69.31.69.69s-.31.69-.69.69Z"/><path class="cls-2" d="m26.08,22.23h-8.38c-.38,0-.69-.31-.69-.69s.31-.69.69-.69h8.38c.38,0,.69.31.69.69s-.31.69-.69.69Z"/><path class="cls-2" d="m26.07,26.76H7.92c-.38,0-.69-.31-.69-.69s.31-.69.69-.69h18.15c.38,0,.69.31.69.69s-.31.69-.69.69Z"/><g><path class="cls-2" d="m10.86,20.83c-.18,0-.37-.07-.5-.22l-2.94-3.14c-.26-.28-.25-.72.03-.98.28-.26.72-.25.98.03l2.94,3.14c.26.28.25.72-.03.98-.13.12-.3.19-.47.19Z"/><path class="cls-2" d="m7.92,17.69c-.17,0-.34-.06-.47-.19-.28-.26-.29-.7-.03-.98l2.94-3.14c.26-.28.7-.29.98-.03s.29.7.03.98l-2.94,3.14c-.14.14-.32.22-.5.22Z"/></g><path class="cls-2" d="m14.62,17.7h-6.7c-.38,0-.69-.31-.69-.69s.31-.69.69-.69h6.7c.38,0,.69.31.69.69s-.31.69-.69.69Z"/></g></svg>