<?xml version="1.0" encoding="UTF-8"?><svg id="background" xmlns="http://www.w3.org/2000/svg" viewBox="0 0 34 34"><defs><style>.cls-1{fill:none;}.cls-2{fill:#c7c7c7;}</style></defs><rect class="cls-1" width="34" height="34"/><g><path class="cls-2" d="m26.07,26.77H7.93c-.38,0-.69-.31-.69-.69s.31-.69.69-.69h18.14c.38,0,.69.31.69.69s-.31.69-.69.69Z"/><g><path class="cls-2" d="m23.21,22.54c-.26,0-.52-.15-.63-.41l-5.57-12.51-5.59,12.5c-.16.35-.56.5-.91.35-.35-.16-.5-.56-.35-.91l6.22-13.91c.11-.25.36-.41.63-.41h0c.27,0,.52.16.63.41l6.2,13.92c.16.35,0,.76-.35.91-.09.04-.19.06-.28.06Z"/><path class="cls-2" d="m20.77,17.69h-7.55c-.38,0-.69-.31-.69-.69s.31-.69.69-.69h7.55c.38,0,.69.31.69.69s-.31.69-.69.69Z"/></g></g></svg>