<?xml version="1.0" encoding="UTF-8"?><svg xmlns="http://www.w3.org/2000/svg" viewBox="0 0 34 34"><defs><style>.cls-1{fill:none;}.cls-2{fill:#c7c7c7;}</style></defs><g id="background"><rect class="cls-1" width="34" height="34"/></g><g id="icon"><g><path class="cls-2" d="m26.05,8.64H7.94c-.38,0-.69-.31-.69-.69s.31-.69.69-.69h18.11c.38,0,.69.31.69.69s-.31.69-.69.69Z"/><path class="cls-2" d="m26.06,14.67h-10.81c-.38,0-.69-.31-.69-.69s.31-.69.69-.69h10.81c.38,0,.69.31.69.69s-.31.69-.69.69Z"/><path class="cls-2" d="m26.06,20.71h-10.81c-.38,0-.69-.31-.69-.69s.31-.69.69-.69h10.81c.38,0,.69.31.69.69s-.31.69-.69.69Z"/><path class="cls-2" d="m26.05,26.74H7.94c-.38,0-.69-.31-.69-.69s.31-.69.69-.69h18.11c.38,0,.69.31.69.69s-.31.69-.69.69Z"/><g><path class="cls-2" d="m7.94,17.01l2.17-2.17s.06,4.34,0,4.34l-2.17-2.17"/><path class="cls-2" d="m10.1,19.87c-.18,0-.36-.07-.49-.2l-2.17-2.17c-.13-.13-.2-.3-.2-.49s.07-.36.2-.49l2.17-2.17c.2-.2.49-.26.75-.15.26.1.43.35.43.63q.06,4.57-.2,4.83c-.13.13-.31.21-.49.21Zm-1.19-2.86l.53.53c0-.33,0-.69,0-1.05l-.52.52Z"/></g></g></g></svg>