<?xml version="1.0" encoding="UTF-8"?><svg xmlns="http://www.w3.org/2000/svg" viewBox="0 0 17 34"><defs><style>.cls-1{fill:none;}.cls-2{fill:#c7c7c7;}</style></defs><g id="background"><rect class="cls-1" width="17" height="34"/></g><g id="icon"><g><path class="cls-2" d="m8.5,19.78c-.21,0-.42-.08-.59-.24-.32-.32-.32-.85,0-1.17l3.91-3.91c.32-.32.85-.32,1.17,0,.32.32.32.85,0,1.17l-3.91,3.91c-.16.16-.37.24-.59.24Z"/><path class="cls-2" d="m8.5,19.78c-.21,0-.42-.08-.59-.24l-3.91-3.91c-.32-.32-.32-.85,0-1.17.32-.32.85-.32,1.17,0l3.91,3.91c.32.32.32.85,0,1.17-.16.16-.37.24-.59.24Z"/></g></g></svg>