<?xml version="1.0" encoding="UTF-8"?><svg id="background" xmlns="http://www.w3.org/2000/svg" viewBox="0 0 34 34"><defs><style>.cls-1{fill:none;}.cls-2{fill:#c7c7c7;}</style></defs><rect class="cls-1" width="34" height="34"/><g><path class="cls-2" d="m17,26.76c-.38,0-.69-.31-.69-.69v-6.31c0-.38.31-.69.69-.69s.69.31.69.69v6.31c0,.38-.31.69-.69.69Z"/><path class="cls-2" d="m17,14.94c-.38,0-.69-.31-.69-.69v-6.32c0-.38.31-.69.69-.69s.69.31.69.69v6.32c0,.38-.31.69-.69.69Z"/><path class="cls-2" d="m21.87,8.62h-9.73c-.38,0-.69-.31-.69-.69s.31-.69.69-.69h9.73c.38,0,.69.31.69.69s-.31.69-.69.69Z"/><path class="cls-2" d="m23.21,17.69h-12.41c-.38,0-.69-.31-.69-.69s.31-.69.69-.69h12.41c.38,0,.69.31.69.69s-.31.69-.69.69Z"/></g></svg>