<?xml version="1.0" encoding="UTF-8"?><svg id="background" xmlns="http://www.w3.org/2000/svg" viewBox="0 0 34 34"><defs><style>.cls-1{fill:none;}.cls-2{fill:#c7c7c7;}</style></defs><rect class="cls-1" width="34" height="34"/><g><path class="cls-2" d="m15.58,26.75s-.07,0-.11,0c-.38-.06-.63-.41-.57-.79l2.85-18.13c.06-.38.41-.63.79-.57.38.06.63.41.57.79l-2.85,18.13c-.05.34-.35.58-.68.58Z"/><path class="cls-2" d="m21.09,8.62h-5.51c-.38,0-.69-.31-.69-.69s.31-.69.69-.69h5.51c.38,0,.69.31.69.69s-.31.69-.69.69Z"/><path class="cls-2" d="m18.42,26.76h-5.51c-.38,0-.69-.31-.69-.69s.31-.69.69-.69h5.51c.38,0,.69.31.69.69s-.31.69-.69.69Z"/></g></svg>