<?xml version="1.0" encoding="UTF-8"?><svg id="background" xmlns="http://www.w3.org/2000/svg" viewBox="0 0 34 34"><defs><style>.cls-1{fill:none;}.cls-2{fill:#c7c7c7;}</style></defs><rect class="cls-1" width="34" height="34"/><g><g><circle class="cls-2" cx="14.04" cy="18.21" r="2.28"/><circle class="cls-2" cx="19.79" cy="18.21" r="2.28"/></g><path class="cls-2" d="m12.84,17.86c-.18,0-.35-.07-.49-.2-.27-.27-.27-.71,0-.98l2.97-2.97c.27-.27.71-.27.98,0,.27.27.27.71,0,.98l-2.97,2.97c-.13.13-.31.2-.49.2Z"/><path class="cls-2" d="m18.58,17.86c-.18,0-.35-.07-.49-.2-.27-.27-.27-.71,0-.98l2.97-2.97c.27-.27.71-.27.98,0,.27.27.27.71,0,.98l-2.97,2.97c-.13.13-.31.2-.49.2Z"/></g></svg>