<?xml version="1.0" encoding="UTF-8"?><svg id="background" xmlns="http://www.w3.org/2000/svg" viewBox="0 0 34 34"><defs><style>.cls-1{fill:none;}.cls-2{fill:#c7c7c7;}</style></defs><rect class="cls-1" width="34" height="34"/><g><path class="cls-2" d="m26.07,26.76H7.93c-.38,0-.69-.31-.69-.69V7.93c0-.38.31-.69.69-.69h18.14c.38,0,.69.31.69.69v18.14c0,.38-.31.69-.69.69Zm-17.45-1.38h16.76V8.62H8.62v16.76Z"/><path class="cls-2" d="m17,23.9c-3.81,0-6.9-3.1-6.9-6.9s3.1-6.9,6.9-6.9,6.9,3.1,6.9,6.9-3.1,6.9-6.9,6.9Zm0-12.42c-3.04,0-5.52,2.48-5.52,5.52s2.48,5.52,5.52,5.52,5.52-2.48,5.52-5.52-2.48-5.52-5.52-5.52Z"/></g></svg>