<?xml version="1.0" encoding="UTF-8"?><svg id="background" xmlns="http://www.w3.org/2000/svg" viewBox="0 0 34 34"><defs><style>.cls-1{fill:none;}.cls-2{fill:#c7c7c7;}</style></defs><rect class="cls-1" width="34" height="34"/><g><path class="cls-2" d="m18.91,18.59h-8.29c-.38,0-.69-.31-.69-.69s.31-.69.69-.69h8.29c.38,0,.69.31.69.69s-.31.69-.69.69Z"/><path class="cls-2" d="m19.98,26.76c-.29,0-.32-.03-.85-.56l-.79-.79c-.14-.14-.21-.33-.2-.52l.11-2.41c0-.17.08-.33.2-.46l4.82-4.82c.13-.13.31-.2.49-.2s.36.07.49.2l2.3,2.3c.27.27.27.71,0,.98l-6.08,6.08c-.13.13-.31.2-.49.2Zm-.45-2.11l.45.45,5.1-5.1-1.32-1.32-4.14,4.14-.08,1.84Z"/><path class="cls-2" d="m20.22,18.46l-.18-.41s0,0,0,0l-3.19-7.16s-.01-.02-.02-.03l-1.43-3.21c-.11-.25-.36-.41-.63-.41-.27,0-.52.16-.63.41l-6.83,15.29c-.16.35,0,.76.35.91.35.16.76,0,.91-.35l6.2-13.88s0,0,0,0l3.09,6.93,1.1,2.47c.08.17.22.3.38.36s.35.06.53-.01c.35-.15.51-.56.35-.91Z"/></g></svg>