<?xml version="1.0" encoding="UTF-8"?><svg id="background" xmlns="http://www.w3.org/2000/svg" viewBox="0 0 34 34"><defs><style>.cls-1{fill:none;}.cls-2{fill:#202937;}</style></defs><rect class="cls-1" width="34" height="34"/><g><path class="cls-2" d="m26.07,26.76H7.93c-.38,0-.69-.31-.69-.69V7.93c0-.38.31-.69.69-.69h18.14c.38,0,.69.31.69.69v18.14c0,.38-.31.69-.69.69Zm-17.45-1.38h16.76V8.62H8.62v16.76Z"/><path class="cls-2" d="m23.21,20.45h-5.52c-.38,0-.69-.31-.69-.69v-5.52c0-.38.31-.69.69-.69h5.52c.38,0,.69.31.69.69v5.52c0,.38-.31.69-.69.69Zm-4.83-1.38h4.14v-4.14h-4.14v4.14Z"/><g><path class="cls-2" d="m15.19,14.9h-4.4c-.38,0-.69-.31-.69-.69s.31-.69.69-.69h4.4c.38,0,.69.31.69.69s-.31.69-.69.69Z"/><path class="cls-2" d="m15.19,17.67h-4.4c-.38,0-.69-.31-.69-.69s.31-.69.69-.69h4.4c.38,0,.69.31.69.69s-.31.69-.69.69Z"/><path class="cls-2" d="m15.19,20.45h-4.4c-.38,0-.69-.31-.69-.69s.31-.69.69-.69h4.4c.38,0,.69.31.69.69s-.31.69-.69.69Z"/></g></g></svg>