<?xml version="1.0" encoding="UTF-8"?><svg id="background" xmlns="http://www.w3.org/2000/svg" viewBox="0 0 34 34"><defs><style>.cls-1{fill:none;}.cls-2{fill:#202937;}</style></defs><rect class="cls-1" width="34" height="34"/><g><path class="cls-2" d="m27.68,9.15h-15.62c-.45,0-.81-.36-.81-.81s.36-.81.81-.81h15.62c.45,0,.81.36.81.81s-.36.81-.81.81Z"/><circle class="cls-2" cx="7.16" cy="8.37" r="1.64"/><path class="cls-2" d="m27.68,14.92h-15.62c-.45,0-.81-.36-.81-.81s.36-.81.81-.81h15.62c.45,0,.81.36.81.81s-.36.81-.81.81Z"/><circle class="cls-2" cx="7.16" cy="14.12" r="1.64"/><path class="cls-2" d="m27.68,20.69h-15.62c-.45,0-.81-.36-.81-.81s.36-.81.81-.81h15.62c.45,0,.81.36.81.81s-.36.81-.81.81Z"/><circle class="cls-2" cx="7.16" cy="19.9" r="1.64"/><path class="cls-2" d="m27.68,26.46h-15.62c-.45,0-.81-.36-.81-.81s.36-.81.81-.81h15.62c.45,0,.81.36.81.81s-.36.81-.81.81Z"/><circle class="cls-2" cx="7.15" cy="25.63" r="1.64"/></g></svg>