<?xml version="1.0" encoding="UTF-8"?><svg id="background" xmlns="http://www.w3.org/2000/svg" viewBox="0 0 34 34"><defs><style>.cls-1{fill:none;}.cls-2{fill:#c7c7c7;}</style></defs><rect class="cls-1" width="34" height="34"/><g><path class="cls-2" d="m14,14.89h-6.76c-.46,0-.83-.37-.83-.83v-6.76c0-.46.37-.83.83-.83s.83.37.83.83v5.93h5.93c.46,0,.83.37.83.83s-.37.83-.83.83Z"/><path class="cls-2" d="m17,27.6c-2.83,0-5.5-1.1-7.5-3.11-.32-.32-.32-.85,0-1.17.32-.32.85-.32,1.17,0,1.69,1.69,3.94,2.62,6.33,2.62,4.93,0,8.94-4.01,8.94-8.94s-4.01-8.94-8.94-8.94c-3.92,0-7.34,2.51-8.52,6.24-.14.44-.6.68-1.04.54-.44-.14-.68-.6-.54-1.04,1.4-4.42,5.46-7.39,10.1-7.39,5.84,0,10.6,4.75,10.6,10.6s-4.75,10.6-10.6,10.6Z"/></g></svg>